<svg width="244" height="249" viewBox="0 0 244 249" fill="none" xmlns="http://www.w3.org/2000/svg">
<path fill-rule="evenodd" clip-rule="evenodd" d="M125.385 75.442C125.385 80.104 121.605 83.884 116.943 83.884C112.28 83.884 108.5 80.104 108.5 75.442C108.5 70.779 112.28 67 116.943 67C121.605 67 125.385 70.779 125.385 75.442Z" fill="#EEEEEE" fill-opacity="0.8"/>
<path fill-rule="evenodd" clip-rule="evenodd" d="M191.385 191.442C191.385 196.104 187.605 199.884 182.943 199.884C178.28 199.884 174.5 196.104 174.5 191.442C174.5 186.779 178.28 183 182.943 183C187.605 183 191.385 186.779 191.385 191.442Z" fill="#EEEEEE" fill-opacity="0.8"/>
<path fill-rule="evenodd" clip-rule="evenodd" d="M60.385 240.442C60.385 245.104 56.605 248.884 51.943 248.884C47.28 248.884 43.5 245.104 43.5 240.442C43.5 235.779 47.28 232 51.943 232C56.605 232 60.385 235.779 60.385 240.442Z" fill="#EEEEEE" fill-opacity="0.8"/>
<path fill-rule="evenodd" clip-rule="evenodd" d="M243.385 87.442C243.385 92.104 239.605 95.884 234.943 95.884C230.28 95.884 226.5 92.104 226.5 87.442C226.5 82.779 230.28 79 234.943 79C239.605 79 243.385 82.779 243.385 87.442Z" fill="#EEEEEE" fill-opacity="0.8"/>
<path fill-rule="evenodd" clip-rule="evenodd" d="M196.385 8.442C196.385 13.104 192.605 16.884 187.943 16.884C183.28 16.884 179.5 13.104 179.5 8.442C179.5 3.779 183.28 0 187.943 0C192.605 0 196.385 3.779 196.385 8.442Z" fill="#EEEEEE" fill-opacity="0.8"/>
<path fill-rule="evenodd" clip-rule="evenodd" d="M17.385 153.442C17.385 158.104 13.605 161.884 8.943 161.884C4.28 161.884 0.5 158.104 0.5 153.442C0.5 148.779 4.28 145 8.943 145C13.605 145 17.385 148.779 17.385 153.442Z" fill="#EEEEEE" fill-opacity="0.8"/>
<path fill-rule="evenodd" clip-rule="evenodd" d="M243.385 240.442C243.385 245.104 239.606 248.884 234.943 248.884C230.281 248.884 226.5 245.104 226.5 240.442C226.5 235.779 230.281 232 234.943 232C239.606 232 243.385 235.779 243.385 240.442Z" fill="#EEEEEE" fill-opacity="0.8"/>
</svg>
